HIERARCHY
ROOT pelvis
{
  OFFSET 0 100 0
  CHANNELS 6 Xposition Yposition Zposition Zrotation Xrotation Yrotation
  JOINT pelvis_right_femur
  {
    OFFSET -10.78128 -3.44521 -0.5502486
    CHANNELS 3 Zrotation Xrotation Yrotation
    JOINT right_femur_tibia
    {
      OFFSET -0.8047443 -44.0398 -0.1307829
      CHANNELS 3 Zrotation Xrotation Yrotation
      JOINT right_tibia_foot
      {
        OFFSET 3.006224 -47.83518 -5
        CHANNELS 3 Zrotation Xrotation Yrotation
        End Site
        {
          OFFSET 0 -5 15
        }
      }
    }
  }
  JOINT pelvis_left_femur
  {
    OFFSET 10.78128 -3.44521 -0.5502486
    CHANNELS 3 Zrotation Xrotation Yrotation
    JOINT left_femur_tibia
    {
      OFFSET 0.8047443 -44.0398 -0.1307829
      CHANNELS 3 Zrotation Xrotation Yrotation
      JOINT left_tibia_foot
      {
        OFFSET -4.370144 -48.10324 -4.275266
        CHANNELS 3 Zrotation Xrotation Yrotation
        End Site
        {
          OFFSET 0 -5 15
        }
      }
    }
  }
  JOINT pelvis_spine1
  {
    OFFSET 0 6.468898 -3.129235
    CHANNELS 3 Zrotation Xrotation Yrotation
    JOINT spine1
    {
      OFFSET 0 23.15396 4.99043
      CHANNELS 3 Zrotation Xrotation Yrotation
      JOINT spine2
      {
        OFFSET 0 20.79997 -5.064912
        CHANNELS 3 Zrotation Xrotation Yrotation
        JOINT neck
        {
          OFFSET 0 14.38658 9.616178
          CHANNELS 3 Zrotation Xrotation Yrotation
          End Site
          {
            OFFSET 0 20 0
          }
        }
      }
      JOINT right_manubrium
      {
        OFFSET -5.722621 16.35077 3.967754
        CHANNELS 3 Zrotation Xrotation Yrotation
        JOINT right_clavicle
        {
          OFFSET -13.16364 1.694482 -4.693211
          CHANNELS 3 Zrotation Xrotation Yrotation
          JOINT right_humerus
          {
            OFFSET -28.5034 -0.3100689 -2.792744
            CHANNELS 3 Zrotation Xrotation Yrotation
            JOINT right_radius
            {
              OFFSET -25.15693 0.02248979 -1.271978
              CHANNELS 3 Zrotation Xrotation Yrotation
              End Site
              {
                OFFSET -15 0 0
              }
            }
          }
        }
      }
      JOINT left_manubrium
      {
        OFFSET 5.722621 16.35077 3.967754
        CHANNELS 3 Zrotation Xrotation Yrotation
        JOINT left_clavicle
        {
          OFFSET 13.16364 1.694482 -4.693211
          CHANNELS 3 Zrotation Xrotation Yrotation
          JOINT left_humerus
          {
            OFFSET 29.39168 -1.063119 -2.237045
            CHANNELS 3 Zrotation Xrotation Yrotation
            JOINT left_radius
            {
              OFFSET 24.59957 -0.9528479 0.9047498
              CHANNELS 3 Zrotation Xrotation Yrotation
              End Site
              {
                OFFSET 15 -0 -0
              }
            }
          }
        }
      }
    }
  }
}
MOTION
Frames: 23
Frame Time: 0.0416666666667
0 103.5113 0 1.195269 -0.7956833 0.04337817 2.963722 -16.90416 8.06618 -0 36.17618 -0 -5.22542 -16.14656 -3.53073 -7.084829 11.97472 -23.21589 -0 4.94014 -0 5.721689 -18.47829 25.07953 -3.302742 -3.960537 5.133278 3.09536 8.755188 -8.791046 0.8646198 21.11698 6.54951 2.366782 -25.29008 9.072382 4.875111 -20.42195 11.63263 83.21393 32.51324 -16.17049 -0 0 19.62219 -11.87558 9.192874 4.935424 8.456423 -21.33307 3.571582 -93.82321 18.69365 22.00434 0 0 -8.012911 13.91237 19.446 -5.933719
0.2033504 104.4045 1.598029 0.2885485 -0.2751161 -0.06889081 4.163766 -20.10798 8.525021 -0 36.31438 -0 -5.314297 -14.70156 -3.770322 -6.30996 11.96032 -22.86891 -0 5.67507 -0 3.665362 -19.96174 24.22051 -3.138875 -3.539043 4.988533 3.124015 8.964242 -8.732049 0.7901377 21.05614 6.822904 2.616808 -25.39912 9.096632 4.904879 -20.0771 11.82917 83.82549 32.77625 -16.66802 -0 0 18.66429 -11.89403 9.351059 5.078442 8.232789 -21.43388 3.042992 -93.46304 18.79337 21.46716 0 0 -9.227141 13.59874 18.4688 -5.46164
0.4075388 105.0757 3.586107 -0.3227556 0.5739647 -0.1744651 5.269239 -24.72057 7.939316 -0 32.50751 -0 -5.74607 -12.27698 -3.299187 -5.919151 12.16318 -21.66643 -0 5.848786 -0 4.505807 -20.90436 23.72826 -2.979267 -3.28798 4.884845 3.164384 9.155517 -8.707885 0.8270336 20.97314 6.960653 2.790417 -25.53016 9.183655 5.114587 -19.76711 11.89224 84.33451 33.18763 -17.3471 -0 0 17.78016 -11.29008 9.443466 4.915575 8.040412 -21.52318 2.50267 -93.19933 19.22105 20.97339 0 0 -10.66149 13.42889 17.82686 -4.81904
0.6225564 105.5557 5.901563 -0.796357 1.479498 -0.2450584 6.270662 -28.55624 7.896295 -0 29.08585 -0 -5.790457 -10.45692 -3.065838 -5.65074 12.28294 -20.77047 -0 6.079944 -0 5.072558 -21.75381 23.28726 -2.822894 -2.97449 4.736448 3.226209 9.329211 -8.689896 0.8221493 20.88197 7.148294 2.974878 -25.68037 9.264374 5.221011 -19.45117 12.00368 84.92874 33.54778 -18.00134 -0 0 16.84092 -10.90396 9.538129 4.88052 7.835338 -21.60275 1.954574 -92.80172 19.46022 20.3692 0 0 -12.13543 13.30141 16.99557 -4.364202
0.8410357 105.8092 8.663584 -1.107915 2.333176 -0.2060022 6.981362 -31.98826 7.378952 -0 24.68216 -0 -5.992293 -8.436924 -2.674039 -5.536458 12.67674 -19.68275 -0 6.525581 -0 5.693353 -22.52427 22.55249 -2.672384 -2.70236 4.602179 3.281701 9.477353 -8.662896 0.8335235 20.79011 7.298979 3.131748 -25.81821 9.34407 5.32698 -19.1567 12.07268 85.47438 33.93631 -18.62682 -0 0 15.93975 -10.47605 9.616396 4.852693 7.637488 -21.66204 1.41376 -92.40249 19.74699 19.8037 0 0 -13.61486 13.19385 16.19768 -3.879006
1.05672 105.8891 11.93993 -1.332187 3.095441 0.002042801 7.44991 -34.62143 6.669954 -0 20.27978 -0 -6.294136 -6.460283 -2.304981 -5.483564 13.30126 -18.54842 -0 7.510005 -0 5.75554 -23.1587 21.37443 -2.529484 -2.433028 4.46032 3.338268 9.600789 -8.635493 0.8325451 20.6954 7.451347 3.279721 -25.94255 9.412425 5.389902 -18.87032 12.13779 86.01425 34.30807 -19.21371 -0 0 15.0492 -10.15022 9.696804 4.89258 7.450178 -21.71679 0.8883315 -91.9496 19.97475 19.21179 0 0 -15.09294 13.09795 15.35491 -3.450333
1.2578 105.9026 15.82596 -1.507393 3.706055 0.4305093 7.653151 -36.17753 5.708478 -0 16.2404 -0 -6.763565 -4.510011 -1.977784 -5.421945 14.20367 -17.26352 -0 9.453461 -0 4.921745 -23.42355 19.48112 -2.391604 -2.183956 4.328428 3.384238 9.701855 -8.602233 0.8261863 20.60325 7.586838 3.413632 -26.03533 9.457856 5.43095 -18.59522 12.18352 86.51285 34.66164 -19.74757 -0 0 14.19753 -9.912042 9.787709 4.987553 7.279322 -21.76892 0.3882637 -91.49075 20.1937 18.64981 0 0 -16.50574 12.97544 14.5231 -3.008222
1.434059 106.0294 20.39288 -1.709709 4.148457 1.087612 7.755923 -36.35054 4.829059 -0 13.35548 -0 -7.278317 -2.815342 -1.80959 -5.234959 15.21897 -15.8724 -0 12.79269 -0 2.908236 -22.90077 16.80316 -2.258556 -1.95251 4.208616 3.416747 9.784639 -8.568806 0.8073139 20.51617 7.708902 3.537692 -26.08437 9.468406 5.450691 -18.32855 12.21867 86.96489 34.96619 -20.22179 -0 0 13.39997 -9.807917 9.903373 5.142756 7.133322 -21.83007 -0.07027714 -91.04285 20.38802 18.12612 0 0 -17.79302 12.79962 13.72355 -2.551444
1.579034 106.4847 25.66946 -2.024051 4.387811 1.897148 7.989454 -34.97271 4.418199 -0 12.32105 -0 -7.664034 -1.630118 -1.863012 -4.786228 15.96806 -14.44227 -0 17.94267 -0 -0.1711202 -21.00196 13.57724 -2.128744 -1.744 4.113271 3.427593 9.856967 -8.53616 0.7753078 20.44071 7.808632 3.651478 -26.07404 9.429792 5.461693 -18.07294 12.24398 87.34762 35.193 -20.6218 -0 0 12.68984 -9.858907 10.05591 5.349495 7.017027 -21.90494 -0.4699627 -90.65355 20.57319 17.68916 0 0 -18.85579 12.53134 13.00704 -2.042905
1.698173 107.4429 31.58855 -2.507934 4.355326 2.666062 8.517208 -32.15796 4.72673 -0 13.38797 -0 -7.801506 -1.257645 -2.088542 -3.990004 15.77386 -13.11301 -0 25.05061 -0 -3.590558 -17.33205 10.52856 -2.004414 -1.561081 4.054996 3.408319 9.927738 -8.504795 0.7278506 20.38498 7.88104 3.75576 -25.98943 9.329525 5.47113 -17.83579 12.26545 87.63627 35.30673 -20.92166 -0 0 12.11119 -10.09762 10.25412 5.601974 6.933646 -21.99533 -0.7888876 -90.36985 20.7499 17.3868 0 0 -19.58401 12.13699 12.42125 -1.462664
1.815235 108.9424 37.93483 -3.06381 3.914346 3.112227 9.177263 -28.24446 5.472623 -0 15.72506 -0 -7.831717 -1.951079 -2.288208 -2.989606 13.86255 -11.99087 -0 33.7925 -0 -6.226982 -12.30766 8.557487 -1.892632 -1.407189 4.050716 3.347193 10.00478 -8.467798 0.6645932 20.3594 7.921286 3.850206 -25.81643 9.1596 5.480829 -17.63361 12.28761 87.79557 35.28076 -21.0735 -0 0 11.72118 -10.55448 10.49796 5.900539 6.880921 -22.09288 -1.005864 -90.23739 20.9178 17.27565 0 0 -19.87183 11.59126 12.00409 -0.7941678
1.965102 110.8709 44.34647 -3.338424 2.910357 3.010627 9.446563 -23.46901 5.894716 -0 17.49908 -0 -8.112326 -3.754428 -2.304302 -2.261618 9.882904 -11.06913 -0 43.33102 -0 -7.300749 -7.425578 8.100246 -1.807627 -1.285396 4.117797 3.230938 10.0896 -8.409041 0.5863548 20.37354 7.929826 3.933722 -25.54571 8.922008 5.478376 -17.49363 12.3128 87.78488 35.10677 -21.00514 -0 0 11.58223 -11.26091 10.77356 6.262225 6.851402 -22.17745 -1.104831 -90.27714 21.06343 17.3983 0 0 -19.6603 10.89278 11.75765 -0.04276649
2.167436 113.0663 50.4596 -2.902989 1.31297 2.403843 8.815888 -17.80082 5.452088 -0 17.24192 -0 -8.725266 -6.187109 -2.22125 -2.282028 4.324555 -10.2581 -0 52.48828 -0 -6.939233 -4.368565 8.881807 -1.767292 -1.198859 4.271984 3.046469 10.17459 -8.30206 0.4970105 20.43287 7.910089 4.002252 -25.17721 8.630918 5.436292 -17.452 12.33622 87.56595 34.80321 -20.63102 -0 0 11.74913 -12.23619 11.05092 6.722178 6.831147 -22.21473 -1.083731 -90.4761 21.16813 17.77727 0 0 -18.96484 10.06992 11.63462 0.7694665
2.401121 115.3865 56.12552 -1.71462 -0.6137526 1.631891 7.345241 -11.41739 4.434633 -0 15.15923 -0 -9.128451 -8.254436 -2.119867 -2.898804 -1.919662 -9.442042 -0 59.64915 -0 -5.974031 -3.571938 10.29301 -1.785974 -1.150642 4.52553 2.78364 10.2448 -8.114543 0.4043743 20.53681 7.863541 4.047316 -24.72224 8.30908 5.318946 -17.54688 12.34435 87.11375 34.40919 -19.87509 -0 0 12.25711 -13.47505 11.2882 7.32356 6.800362 -22.1597 -0.9589561 -90.79584 21.22072 18.42053 0 0 -17.86768 9.172304 11.54809 1.618445
2.609964 117.63 61.44992 -0.2849993 -2.345651 1.029233 5.694655 -5.089264 3.519513 -0 12.46681 -0 -8.728512 -9.351721 -1.8087 -3.264712 -8.369329 -8.440716 -0 62.5627 -0 -5.163831 -4.065751 11.86077 -1.868984 -1.144706 4.887999 2.436584 10.28268 -7.815612 0.3194864 20.67999 7.785078 4.056944 -24.19852 7.979437 5.095422 -17.81056 12.31749 86.41792 33.97053 -18.68775 -0 0 13.12105 -14.94337 11.44115 8.101215 6.736799 -21.96562 -0.7604263 -91.19603 21.22899 19.33633 0 0 -16.47949 8.250534 11.40476 2.496359
2.765195 119.4755 66.61366 0.7250531 -3.452562 0.6449345 4.593764 0.393569 3.009388 -0 10.00734 -0 -7.671861 -10.07776 -1.191613 -2.571285 -14.82941 -7.059178 -0 59.26744 -0 -4.635663 -4.71662 13.45151 -2.013203 -1.186787 5.364495 2.006124 10.27106 -7.384784 0.2535841 20.85345 7.666088 4.019813 -23.62489 7.660451 4.748593 -18.26297 12.2362 85.48037 33.52854 -17.05342 -0 0 14.33801 -16.58378 11.47202 9.068764 6.623101 -21.59766 -0.5202124 -91.64527 21.2129 20.52719 0 0 -14.91704 7.34775 11.13398 3.404486
2.921616 120.6241 71.73435 0.9888191 -3.85459 0.3294643 4.337267 4.839487 2.816334 -0 8.114416 -0 -6.540166 -11.55056 -0.4922763 -0.7418879 -20.7459 -5.273372 -0 49.954 -0 -4.110446 -5.051874 15.05526 -2.207449 -1.280505 5.945338 1.506977 10.19698 -6.824838 0.2144657 21.04267 7.50369 3.931314 -23.02478 7.367841 4.281474 -18.89945 12.08992 84.33015 33.11405 -15.01669 -0 0 15.86852 -18.31346 11.35929 10.20425 6.454799 -21.05018 -0.2672838 -92.1118 21.18901 21.95502 0 0 -13.31516 6.50676 10.69994 4.32785
3.175855 121.0095 76.89849 0.6275336 -3.707662 -0.05386317 4.646981 8.478155 2.765681 -0 7.078356 -0 -5.605214 -14.08318 0.06927147 1.534655 -25.32384 -3.405436 -0 37.49538 -0 -3.487768 -5.096276 16.50438 -2.428641 -1.416964 6.592236 0.9752176 10.06201 -6.175361 0.2034686 21.22606 7.309104 3.799722 -22.43371 7.116011 3.72502 -19.67246 11.88658 83.05467 32.73965 -12.72786 -0 0 17.60047 -20.01872 11.1129 11.43442 6.244023 -20.36337 -0.0309918 -92.55466 21.16307 23.50725 0 0 -11.83219 5.769367 10.10711 5.225257
3.586935 120.832 82.23911 0.01509903 -3.247754 -0.553089 4.952171 11.56655 2.693518 -0 7.207958 -0 -4.830827 -16.87094 0.4948112 3.286557 -28.12272 -2.03501 -0 25.76368 -0 -2.973747 -5.040449 17.58983 -2.641218 -1.566759 7.237995 0.4641061 9.892647 -5.511056 0.2149491 21.37967 7.107364 3.647463 -21.89752 6.9147 3.139923 -20.48736 11.65693 81.8078 32.39582 -10.4498 -0 0 19.34262 -21.56908 10.78415 12.63875 6.014499 -19.622 0.1560479 -92.93231 21.13511 25.00876 0 0 -10.61221 5.158567 9.400764 6.050314
4.153953 120.4164 87.93164 -0.4590972 -2.750092 -1.148356 4.780796 14.27007 2.507298 -0 8.676553 -0 -4.179681 -18.65421 0.8748325 3.845701 -29.25661 -1.614147 -0 17.5225 -0 -2.76602 -5.086289 18.27903 -2.806662 -1.686168 7.806008 0.02704085 9.736081 -4.918187 0.2393012 21.48588 6.927829 3.504116 -21.45895 6.765388 2.602811 -21.22738 11.44638 80.76845 32.0619 -8.487761 -0 0 20.87336 -22.85066 10.45347 13.68412 5.791044 -18.92891 0.2629186 -93.21804 21.10722 26.27909 0 0 -9.736985 4.666575 8.654061 6.777574
4.844312 120.0627 94.12056 -0.5325365 -2.474333 -1.775947 3.951382 16.66196 2.290454 -0 11.53654 -0 -3.63662 -18.40712 1.195954 3.120348 -29.13592 -2.184438 -0 13.58639 -0 -2.827899 -5.36189 18.68897 -2.897385 -1.735071 8.234835 -0.2991913 9.64056 -4.465759 0.2672528 21.53844 6.793404 3.395737 -21.1429 6.66206 2.182163 -21.79166 11.29752 80.07718 31.72427 -7.086943 -0 0 22.00987 -23.79521 10.20035 14.46861 5.591975 -18.37157 0.2690557 -93.40163 21.08589 27.18563 0 0 -9.219935 4.264871 7.943111 7.406604
5.627072 119.992 100.8462 -0.1238445 -2.576294 -2.328577 2.564302 18.62924 2.278349 -0 15.8893 -0 -3.113885 -15.66737 1.31499 1.454203 -28.11608 -3.439744 -0 13.24833 -0 -2.924297 -5.884585 18.93071 -2.903932 -1.691678 8.491039 -0.4999234 9.636699 -4.190767 0.2925522 21.5407 6.71552 3.337806 -20.95108 6.595238 1.919305 -22.11967 11.23549 79.79906 31.38385 -6.371643 -0 0 22.64875 -24.38728 10.07778 14.94529 5.427527 -18.00312 0.1680437 -93.47795 21.0792 27.6597 0 0 -9.039366 3.923966 7.323373 7.948881
6.4857 120.3686 108.0102 0.6609222 -3.062081 -2.661011 0.9374851 19.74896 2.652855 -0 21.96248 -0 -2.482461 -10.67087 1.045557 -0.6455795 -26.28688 -4.947071 -0 15.11617 -0 -2.794569 -6.59184 19.03624 -2.831978 -1.554767 8.566583 -0.5772594 9.732042 -4.101386 0.3123827 21.50003 6.69542 3.334409 -20.86796 6.556045 1.824256 -22.19194 11.26436 79.9312 31.04991 -6.35357 -0 0 22.76248 -24.65064 10.10558 15.11707 5.302051 -17.84264 -0.0357156 -93.43667 21.09287 27.68124 0 0 -9.173726 3.625708 6.81943 8.415049
